<?xml version="1.0" encoding="utf-8"?>
<!-- Generator: Adobe Illustrator 26.3.1, SVG Export Plug-In . SVG Version: 6.00 Build 0)  -->
<svg version="1.1" id="Layer_1" xmlns="http://www.w3.org/2000/svg" xmlns:xlink="http://www.w3.org/1999/xlink" x="0px" y="0px"
	 viewBox="0 0 24 24" style="enable-background:new 0 0 24 24;" xml:space="preserve">
<style type="text/css">
	.st0{fill:#515152;}
</style>
<path class="st0" d="M22.7,6H1.3C0.6,6,0,5.4,0,4.7V3.3C0,2.6,0.6,2,1.3,2h21.4C23.4,2,24,2.6,24,3.3v1.4C24,5.4,23.4,6,22.7,6z
	 M22.7,10H1.3C0.6,10,0,10.6,0,11.3v1.4C0,13.4,0.6,14,1.3,14h21.4c0.7,0,1.3-0.6,1.3-1.3v-1.4C24,10.6,23.4,10,22.7,10z M22.7,18
	H1.3C0.6,18,0,18.6,0,19.3v1.4C0,21.4,0.6,22,1.3,22h21.4c0.7,0,1.3-0.6,1.3-1.3v-1.4C24,18.6,23.4,18,22.7,18z"/>
</svg>
